<?xml version="1.0" encoding="UTF-8" standalone="no"?>
<!DOCTYPE svg PUBLIC "-//W3C//DTD SVG 1.1//EN" "http://www.w3.org/Graphics/SVG/1.1/DTD/svg11.dtd">
<svg version="1.1" xmlns="http://www.w3.org/2000/svg" xmlns:xlink="http://www.w3.org/1999/xlink" preserveAspectRatio="xMidYMid meet" viewBox="0 0 640 640" width="39" height="39"><defs><path d="M406.69 0.16L408.35 0.35L409.98 0.62L411.6 0.97L413.2 1.39L414.77 1.88L416.31 2.43L417.83 3.06L419.32 3.75L420.79 4.51L422.22 5.33L423.62 6.21L424.98 7.15L426.32 8.15L427.61 9.21L428.87 10.32L430.09 11.49L431.27 12.71L432.41 13.98L433.51 15.3L434.56 16.66L435.57 18.08L436.53 19.53L437.44 21.03L438.3 22.58L439.12 24.16L439.88 25.78L440.59 27.44L441.24 29.13L441.84 30.86L442.38 32.62L442.86 34.41L443.28 36.23L443.64 38.07L443.94 39.95L444.17 41.85L444.34 43.77L444.44 45.71L444.48 47.67L580.15 47.67L580.48 46.64L580.84 45.63L581.23 44.63L581.64 43.64L582.07 42.67L582.53 41.72L583.01 40.79L583.51 39.88L584.04 38.98L584.59 38.11L585.16 37.25L585.76 36.42L586.37 35.61L587.01 34.82L587.66 34.05L588.33 33.3L589.03 32.58L589.74 31.88L590.47 31.21L591.21 30.56L591.98 29.94L592.76 29.35L593.56 28.78L594.37 28.24L595.2 27.73L596.04 27.25L596.9 26.79L597.77 26.37L598.65 25.98L599.55 25.61L600.46 25.28L601.38 24.99L602.31 24.72L603.26 24.49L604.21 24.29L605.18 24.13L606.15 24L607.13 23.91L608.13 23.85L609.13 23.84L610.4 23.87L611.66 23.95L612.9 24.1L614.13 24.3L615.34 24.56L616.54 24.88L617.71 25.24L618.87 25.66L620.01 26.13L621.13 26.65L622.23 27.22L623.3 27.83L624.35 28.49L625.38 29.2L626.38 29.95L627.35 30.74L628.29 31.58L629.21 32.45L630.09 33.37L630.95 34.32L631.77 35.31L632.56 36.34L633.31 37.4L634.03 38.49L634.72 39.62L635.37 40.77L635.98 41.96L636.55 43.17L637.08 44.42L637.57 45.69L638.02 46.98L638.42 48.3L638.78 49.65L639.1 51.01L639.37 52.39L639.6 53.8L639.77 55.22L639.9 56.66L639.97 58.12L640 59.59L639.97 61.06L639.9 62.52L639.77 63.96L639.6 65.38L639.37 66.79L639.1 68.17L638.78 69.53L638.42 70.88L638.02 72.2L637.57 73.49L637.08 74.76L636.55 76L635.98 77.22L635.37 78.41L634.72 79.56L634.03 80.69L633.31 81.78L632.56 82.84L631.77 83.87L630.95 84.86L630.09 85.81L629.21 86.72L628.29 87.6L627.35 88.43L626.38 89.23L625.38 89.98L624.35 90.68L623.3 91.35L622.23 91.96L621.13 92.53L620.01 93.05L618.87 93.52L617.71 93.94L616.54 94.3L615.34 94.62L614.13 94.87L612.9 95.08L611.66 95.22L610.4 95.31L609.13 95.34L608.13 95.32L607.13 95.27L606.15 95.18L605.18 95.05L604.21 94.89L603.26 94.69L602.31 94.46L601.38 94.19L600.46 93.9L599.55 93.57L598.65 93.2L597.77 92.81L596.9 92.39L596.04 91.93L595.2 91.45L594.37 90.94L593.56 90.4L592.76 89.83L591.98 89.24L591.21 88.62L590.47 87.97L589.74 87.3L589.03 86.6L588.33 85.88L587.66 85.13L587.01 84.36L586.37 83.57L585.76 82.76L585.16 81.92L584.59 81.07L584.04 80.2L583.51 79.3L583.01 78.39L582.53 77.45L582.07 76.51L581.64 75.54L581.23 74.55L580.84 73.55L580.48 72.54L580.15 71.51L567.97 71.51L567.97 472.89L614.83 548.9L615.9 549.15L616.95 549.45L617.99 549.78L619.01 550.16L620.02 550.58L621.01 551.04L621.98 551.53L622.94 552.06L623.88 552.63L624.8 553.23L625.7 553.87L626.57 554.55L627.43 555.25L628.27 555.99L629.08 556.76L629.87 557.56L630.63 558.39L631.37 559.25L632.09 560.14L632.78 561.06L633.44 562L634.08 562.97L634.68 563.97L635.26 564.99L635.81 566.03L636.32 567.1L636.81 568.19L637.27 569.29L637.69 570.42L638.08 571.57L638.43 572.74L638.76 573.93L639.04 575.13L639.29 576.35L639.51 577.59L639.68 578.84L639.82 580.11L639.92 581.39L639.98 582.68L640 583.98L640 619.73L1.98 619.73L1.98 583.98L2 582.68L2.06 581.39L2.16 580.11L2.3 578.84L2.48 577.59L2.69 576.35L2.94 575.13L3.22 573.93L3.55 572.74L3.9 571.57L4.29 570.42L4.71 569.29L5.17 568.19L5.66 567.1L6.17 566.03L6.72 564.99L7.3 563.97L7.91 562.97L8.54 562L9.2 561.06L9.89 560.14L10.61 559.25L11.35 558.39L12.11 557.56L12.9 556.76L13.71 555.99L14.55 555.25L15.41 554.55L16.28 553.87L17.18 553.23L18.1 552.63L19.04 552.06L20 551.53L20.97 551.04L21.96 550.58L22.97 550.16L23.99 549.78L25.03 549.45L26.08 549.15L27.15 548.9L74.01 472.89L74.01 71.51L61.83 71.51L61.5 72.54L61.14 73.55L60.75 74.55L60.34 75.54L59.91 76.51L59.45 77.45L58.97 78.39L58.47 79.3L57.94 80.2L57.39 81.07L56.82 81.92L56.22 82.76L55.61 83.57L54.97 84.36L54.32 85.13L53.65 85.88L52.95 86.6L52.24 87.3L51.51 87.97L50.77 88.62L50 89.24L49.22 89.83L48.42 90.4L47.61 90.94L46.78 91.45L45.94 91.93L45.08 92.39L44.21 92.81L43.33 93.2L42.43 93.57L41.52 93.9L40.6 94.19L39.67 94.46L38.72 94.69L37.77 94.89L36.8 95.05L35.83 95.18L34.85 95.27L33.85 95.32L32.85 95.34L31.58 95.31L30.32 95.22L29.08 95.08L27.85 94.87L26.64 94.62L25.44 94.3L24.27 93.94L23.11 93.52L21.97 93.05L20.85 92.53L19.75 91.96L18.68 91.35L17.63 90.68L16.6 89.98L15.61 89.23L14.63 88.43L13.69 87.6L12.77 86.72L11.89 85.81L11.03 84.86L10.21 83.87L9.42 82.84L8.67 81.78L7.95 80.69L7.26 79.56L6.61 78.41L6 77.22L5.43 76L4.9 74.76L4.41 73.49L3.96 72.2L3.56 70.88L3.2 69.53L2.88 68.17L2.61 66.79L2.39 65.38L2.21 63.96L2.08 62.52L2.01 61.06L1.98 59.59L2.01 58.12L2.08 56.66L2.21 55.22L2.39 53.8L2.61 52.39L2.88 51.01L3.2 49.65L3.56 48.3L3.96 46.98L4.41 45.69L4.9 44.42L5.43 43.17L6 41.96L6.61 40.77L7.26 39.62L7.95 38.49L8.67 37.4L9.42 36.34L10.21 35.31L11.03 34.32L11.89 33.37L12.77 32.45L13.69 31.58L14.63 30.74L15.61 29.95L16.6 29.2L17.63 28.49L18.68 27.83L19.75 27.22L20.85 26.65L21.97 26.13L23.11 25.66L24.27 25.24L25.44 24.88L26.64 24.56L27.85 24.3L29.08 24.1L30.32 23.95L31.58 23.87L32.85 23.84L33.85 23.85L34.85 23.91L35.83 24L36.8 24.13L37.77 24.29L38.72 24.49L39.67 24.72L40.6 24.99L41.52 25.28L42.43 25.61L43.33 25.98L44.21 26.37L45.08 26.79L45.94 27.25L46.78 27.73L47.61 28.24L48.42 28.78L49.22 29.35L50 29.94L50.77 30.56L51.51 31.21L52.24 31.88L52.95 32.58L53.65 33.3L54.32 34.05L54.97 34.82L55.61 35.61L56.22 36.42L56.82 37.25L57.39 38.11L57.94 38.98L58.47 39.88L58.97 40.79L59.45 41.72L59.91 42.67L60.34 43.64L60.75 44.63L61.14 45.63L61.5 46.64L61.83 47.67L146.05 47.67L146.08 45.71L146.19 43.77L146.35 41.85L146.59 39.95L146.89 38.07L147.25 36.23L147.67 34.41L148.15 32.62L148.69 30.86L149.29 29.13L149.94 27.44L150.65 25.78L151.41 24.16L152.22 22.58L153.09 21.03L154 19.53L154.96 18.08L155.97 16.66L157.02 15.3L158.12 13.98L159.26 12.71L160.44 11.49L161.66 10.32L162.92 9.21L164.21 8.15L165.54 7.15L166.91 6.21L168.31 5.33L169.74 4.51L171.2 3.75L172.69 3.06L174.21 2.43L175.76 1.88L177.33 1.39L178.93 0.97L180.54 0.62L182.18 0.35L183.84 0.16L185.52 0.04L187.21 0L188.91 0.04L190.58 0.16L192.24 0.35L193.88 0.62L195.5 0.97L197.09 1.39L198.66 1.88L200.21 2.43L201.73 3.06L203.22 3.75L204.68 4.51L206.11 5.33L207.51 6.21L208.88 7.15L210.21 8.15L211.51 9.21L212.77 10.32L213.99 11.49L215.17 12.71L216.31 13.98L217.4 15.3L218.46 16.66L219.46 18.08L220.42 19.53L221.34 21.03L222.2 22.58L223.01 24.16L223.77 25.78L224.48 27.44L225.14 29.13L225.73 30.86L226.27 32.62L226.75 34.41L227.18 36.23L227.54 38.07L227.83 39.95L228.07 41.85L228.24 43.77L228.34 45.71L228.37 47.67L362.15 47.67L362.19 45.71L362.29 43.77L362.46 41.85L362.69 39.95L362.99 38.07L363.35 36.23L363.77 34.41L364.25 32.62L364.79 30.86L365.39 29.13L366.05 27.44L366.75 25.78L367.51 24.16L368.33 22.58L369.19 21.03L370.1 19.53L371.06 18.08L372.07 16.66L373.12 15.3L374.22 13.98L375.36 12.71L376.54 11.49L377.76 10.32L379.02 9.21L380.31 8.15L381.65 7.15L383.01 6.21L384.41 5.33L385.84 4.51L387.31 3.75L388.8 3.06L390.32 2.43L391.86 1.88L393.43 1.39L395.03 0.97L396.65 0.62L398.28 0.35L399.94 0.16L401.62 0.04L403.32 0L405.01 0.04L406.69 0.16ZM523.37 554.36L524 554.86L524.62 555.38L525.22 555.92L525.82 556.47L526.4 557.04L526.97 557.63L527.53 558.23L528.07 558.85L528.61 559.48L529.12 560.12L529.63 560.78L530.12 561.46L530.6 562.15L531.06 562.85L531.51 563.57L531.94 564.3L532.35 565.04L532.76 565.79L533.14 566.56L533.51 567.34L533.86 568.13L534.2 568.93L534.52 569.74L534.82 570.56L535.1 571.39L535.37 572.24L535.62 573.09L535.85 573.95L536.06 574.82L536.25 575.7L536.43 576.59L536.58 577.49L536.71 578.4L536.83 579.31L536.92 580.23L537 581.16L537.05 582.09L537.08 583.03L537.09 583.98L537.09 595.9L578.26 595.9L578.26 583.98L578.27 583.03L578.3 582.09L578.35 581.16L578.43 580.23L578.52 579.31L578.63 578.4L578.77 577.49L578.92 576.59L579.1 575.7L579.29 574.82L579.5 573.95L579.73 573.09L579.98 572.24L580.25 571.39L580.53 570.56L580.83 569.74L581.15 568.93L581.49 568.13L581.84 567.34L582.21 566.56L582.59 565.79L583 565.04L583.41 564.3L583.84 563.57L584.29 562.85L584.75 562.15L585.23 561.46L585.72 560.78L586.23 560.12L586.74 559.48L587.28 558.85L587.82 558.23L588.38 557.63L588.95 557.04L589.53 556.47L590.13 555.92L590.73 555.38L591.35 554.86L591.98 554.36L592.62 553.88L557.67 497.23L522.73 553.88L523.37 554.36ZM30.65 572.34L29.6 572.67L28.6 573.13L27.66 573.69L26.78 574.37L25.96 575.14L25.21 576L24.55 576.95L23.97 577.97L23.48 579.07L23.09 580.22L22.8 581.43L22.62 582.68L22.56 583.98L22.56 595.9L43.14 595.9L43.14 583.98L43.08 582.68L42.91 581.43L42.62 580.22L42.23 579.07L41.74 577.97L41.16 576.95L40.49 576L39.74 575.14L38.93 574.37L38.04 573.69L37.1 573.13L36.1 572.67L35.06 572.34L33.97 572.13L32.85 572.06L31.73 572.13L30.65 572.34ZM504.02 572.34L502.97 572.67L501.97 573.13L501.03 573.69L500.15 574.37L499.33 575.14L498.58 576L497.92 576.95L497.34 577.97L496.85 579.07L496.46 580.22L496.17 581.43L495.99 582.68L495.93 583.98L495.93 595.9L516.51 595.9L516.51 583.98L516.45 582.68L516.27 581.43L515.99 580.22L515.6 579.07L515.11 577.97L514.53 576.95L513.86 576L513.11 575.14L512.3 574.37L511.41 573.69L510.47 573.13L509.47 572.67L508.43 572.34L507.34 572.13L506.22 572.06L505.1 572.13L504.02 572.34ZM141.46 548.9L142.53 549.15L143.58 549.45L144.62 549.78L145.64 550.16L146.65 550.58L147.64 551.04L148.61 551.53L149.57 552.06L150.51 552.63L151.43 553.23L152.33 553.87L153.2 554.55L154.06 555.25L154.9 555.99L155.71 556.76L156.5 557.56L157.26 558.39L158 559.25L158.72 560.14L159.41 561.06L160.07 562L160.71 562.97L161.31 563.97L161.89 564.99L162.44 566.03L162.96 567.1L163.44 568.19L163.9 569.29L164.32 570.42L164.71 571.57L165.06 572.74L165.39 573.93L165.67 575.13L165.92 576.35L166.14 577.59L166.31 578.84L166.45 580.11L166.55 581.39L166.61 582.68L166.63 583.98L166.63 595.9L475.35 595.9L475.35 583.98L475.37 582.68L475.43 581.39L475.53 580.11L475.67 578.84L475.84 577.59L476.06 576.35L476.31 575.13L476.59 573.93L476.92 572.74L477.27 571.57L477.66 570.42L478.08 569.29L478.54 568.19L479.03 567.1L479.54 566.03L480.09 564.99L480.67 563.97L481.27 562.97L481.91 562L482.57 561.06L483.26 560.14L483.98 559.25L484.72 558.39L485.48 557.56L486.27 556.76L487.08 555.99L487.92 555.25L488.78 554.55L489.65 553.87L490.55 553.23L491.47 552.63L492.41 552.06L493.37 551.53L494.34 551.04L495.33 550.58L496.34 550.16L497.36 549.78L498.4 549.45L499.45 549.15L500.52 548.9L547.38 472.89L547.38 71.51L444.48 71.51L444.48 102.01L445.3 102.83L446.14 103.63L446.98 104.41L447.84 105.17L448.7 105.92L449.58 106.64L450.47 107.35L451.36 108.04L452.26 108.71L453.18 109.35L454.1 109.98L455.03 110.59L455.97 111.18L456.92 111.75L457.88 112.3L458.84 112.83L459.81 113.34L460.79 113.82L461.78 114.29L462.77 114.74L463.77 115.17L464.78 115.57L465.8 115.96L466.82 116.32L467.85 116.66L468.88 116.98L469.92 117.28L470.96 117.56L472.01 117.82L473.07 118.05L474.13 118.26L475.19 118.46L476.26 118.62L477.34 118.77L478.42 118.9L479.5 119L480.59 119.08L481.68 119.13L482.77 119.17L483.87 119.18L526.8 119.18L526.8 214.52L485.64 214.52L485.64 440.96L465.06 440.96L465.06 393.29L444.48 393.29L444.48 440.96L423.9 440.96L423.9 393.29L403.32 393.29L403.32 440.96L382.73 440.96L382.73 214.52L341.57 214.52L341.57 119.18L384.5 119.18L385.6 119.17L386.69 119.13L387.79 119.08L388.87 119L389.96 118.9L391.03 118.77L392.11 118.62L393.18 118.46L394.24 118.26L395.3 118.05L396.36 117.82L397.41 117.56L398.45 117.28L399.49 116.98L400.53 116.66L401.55 116.32L402.57 115.96L403.59 115.57L404.6 115.17L405.6 114.74L406.59 114.29L407.58 113.82L408.56 113.34L409.53 112.83L410.49 112.3L411.45 111.75L412.4 111.18L413.34 110.59L414.27 109.98L415.19 109.35L416.11 108.71L417.01 108.04L417.91 107.35L418.79 106.64L419.67 105.92L420.53 105.17L421.39 104.41L422.24 103.63L423.07 102.83L423.9 102.01L423.9 71.51L228.37 71.51L228.37 102.01L229.2 102.83L230.03 103.63L230.88 104.41L231.73 105.17L232.6 105.92L233.48 106.64L234.36 107.35L235.26 108.04L236.16 108.71L237.07 109.35L238 109.98L238.93 110.59L239.87 111.18L240.82 111.75L241.77 112.3L242.74 112.83L243.71 113.34L244.69 113.82L245.68 114.29L246.67 114.74L247.67 115.17L248.68 115.57L249.69 115.96L250.71 116.32L251.74 116.66L252.77 116.98L253.81 117.28L254.86 117.56L255.91 117.82L256.96 118.05L258.03 118.26L259.09 118.46L260.16 118.62L261.24 118.77L262.32 118.9L263.4 119L264.49 119.08L265.58 119.13L266.67 119.17L267.77 119.18L320.99 119.18L320.99 184.73L308.65 195.46L307.34 196.63L306.05 197.83L304.79 199.06L303.56 200.33L302.36 201.62L301.18 202.94L300.04 204.3L298.92 205.68L297.83 207.09L296.77 208.52L295.74 209.98L294.73 211.47L293.76 212.98L292.82 214.52L291.91 216.08L291.03 217.66L290.18 219.27L289.36 220.89L288.57 222.54L287.82 224.2L287.1 225.89L286.41 227.59L285.75 229.31L285.13 231.05L284.54 232.8L283.98 234.57L283.46 236.36L282.97 238.16L282.52 239.97L282.1 241.79L281.72 243.63L281.37 245.48L281.06 247.33L280.78 249.2L280.55 251.08L280.34 252.96L280.18 254.86L280.05 256.76L279.96 258.66L279.91 260.57L322.16 407.37L318.93 412.36L318.77 412.61L318.48 413.03L318.08 413.62L317.55 414.35L316.91 415.23L316.15 416.24L315.26 417.38L314.26 418.64L313.13 420L311.89 421.46L310.52 423.01L309.03 424.63L307.43 426.33L305.7 428.09L303.85 429.9L301.88 431.75L299.79 433.63L297.57 435.54L295.24 437.46L292.78 439.38L290.21 441.31L287.51 443.22L284.69 445.1L281.75 446.96L278.69 448.77L275.5 450.54L272.19 452.24L268.77 453.88L265.22 455.44L261.54 456.91L257.75 458.28L253.83 459.55L249.79 460.71L245.63 461.74L241.35 462.63L236.94 463.39L232.41 463.99L227.76 464.44L222.98 464.71L218.08 464.8L213.19 464.71L208.41 464.44L203.76 463.99L199.23 463.39L194.82 462.63L190.54 461.74L186.38 460.71L182.34 459.55L178.42 458.28L174.62 456.91L170.95 455.44L167.4 453.88L163.97 452.24L160.67 450.54L157.48 448.77L154.42 446.96L151.48 445.1L148.66 443.22L145.96 441.31L143.38 439.38L140.93 437.46L138.59 435.54L136.38 433.63L134.29 431.75L132.32 429.9L130.47 428.09L128.74 426.33L127.13 424.63L125.65 423.01L124.28 421.46L123.04 420L121.91 418.64L120.91 417.38L120.02 416.24L119.26 415.23L118.61 414.35L118.09 413.62L117.69 413.03L117.4 412.61L117.24 412.36L114.01 407.36L156.26 260.56L156.21 258.65L156.12 256.74L155.99 254.84L155.82 252.95L155.62 251.07L155.38 249.19L155.11 247.32L154.8 245.46L154.45 243.62L154.07 241.78L153.65 239.96L153.2 238.15L152.71 236.35L152.19 234.56L151.63 232.79L151.04 231.04L150.42 229.3L149.76 227.58L149.07 225.88L148.35 224.19L147.6 222.53L146.81 220.88L145.99 219.25L145.14 217.65L144.26 216.07L143.35 214.51L142.41 212.97L141.44 211.46L140.44 209.97L139.4 208.51L138.34 207.07L137.25 205.67L136.14 204.28L134.99 202.93L133.81 201.61L132.61 200.32L131.38 199.05L130.12 197.82L128.84 196.62L127.53 195.45L115.18 184.73L115.18 119.18L168.4 119.18L169.5 119.17L170.59 119.13L171.68 119.08L172.77 119L173.85 118.9L174.93 118.77L176.01 118.62L177.08 118.46L178.14 118.26L179.2 118.05L180.26 117.82L181.31 117.56L182.35 117.28L183.39 116.98L184.42 116.66L185.45 116.32L186.47 115.96L187.49 115.57L188.49 115.17L189.49 114.74L190.49 114.29L191.48 113.82L192.45 113.34L193.43 112.83L194.39 112.3L195.35 111.75L196.29 111.18L197.23 110.59L198.17 109.98L199.09 109.35L200 108.71L200.91 108.04L201.8 107.35L202.69 106.64L203.56 105.92L204.43 105.17L205.29 104.41L206.13 103.63L206.97 102.83L207.79 102.01L207.79 71.51L94.6 71.51L94.6 472.89L141.46 548.9ZM133.55 572.34L132.51 572.67L131.51 573.13L130.57 573.69L129.68 574.37L128.87 575.14L128.12 576L127.45 576.95L126.87 577.97L126.38 579.07L125.99 580.22L125.71 581.43L125.53 582.68L125.47 583.98L125.47 595.9L146.05 595.9L146.05 583.98L145.99 582.68L145.81 581.43L145.52 580.22L145.13 579.07L144.64 577.97L144.06 576.95L143.4 576L142.65 575.14L141.83 574.37L140.95 573.69L140.01 573.13L139.01 572.67L137.96 572.34L136.88 572.13L135.76 572.06L134.64 572.13L133.55 572.34ZM50 554.36L50.63 554.86L51.25 555.38L51.85 555.92L52.45 556.47L53.03 557.04L53.6 557.63L54.16 558.23L54.7 558.85L55.24 559.48L55.75 560.12L56.26 560.78L56.75 561.46L57.23 562.15L57.69 562.85L58.14 563.57L58.57 564.3L58.98 565.04L59.39 565.79L59.77 566.56L60.14 567.34L60.49 568.13L60.83 568.93L61.15 569.74L61.45 570.56L61.73 571.39L62 572.24L62.25 573.09L62.48 573.95L62.69 574.82L62.88 575.7L63.06 576.59L63.21 577.49L63.35 578.4L63.46 579.31L63.55 580.23L63.63 581.16L63.68 582.09L63.71 583.03L63.72 583.98L63.72 595.9L104.89 595.9L104.89 583.98L104.9 583.03L104.93 582.09L104.98 581.16L105.06 580.23L105.15 579.31L105.27 578.4L105.4 577.49L105.55 576.59L105.73 575.7L105.92 574.82L106.13 573.95L106.36 573.09L106.61 572.24L106.88 571.39L107.16 570.56L107.46 569.74L107.78 568.93L108.12 568.13L108.47 567.34L108.84 566.56L109.23 565.79L109.63 565.04L110.04 564.3L110.48 563.57L110.92 562.85L111.38 562.15L111.86 561.46L112.35 560.78L112.86 560.12L113.37 559.48L113.91 558.85L114.45 558.23L115.01 557.63L115.58 557.04L116.16 556.47L116.76 555.92L117.36 555.38L117.98 554.86L118.61 554.36L119.25 553.88L84.31 497.23L49.36 553.88L50 554.36ZM606.92 572.34L605.88 572.67L604.88 573.13L603.94 573.69L603.05 574.37L602.24 575.14L601.49 576L600.82 576.95L600.24 577.97L599.75 579.07L599.36 580.22L599.08 581.43L598.9 582.68L598.84 583.98L598.84 595.9L619.42 595.9L619.42 583.98L619.36 582.68L619.18 581.43L618.89 580.22L618.5 579.07L618.01 577.97L617.43 576.95L616.77 576L616.02 575.14L615.2 574.37L614.32 573.69L613.38 573.13L612.38 572.67L611.33 572.34L610.25 572.13L609.13 572.06L608.01 572.13L606.92 572.34ZM137.08 402.56L137.78 403.42L138.56 404.34L139.4 405.31L140.31 406.33L141.28 407.39L142.33 408.49L143.44 409.63L144.61 410.8L145.86 412.01L147.17 413.23L148.55 414.47L149.99 415.74L151.51 417.01L153.09 418.29L154.74 419.57L156.45 420.86L158.24 422.14L160.09 423.41L162.01 424.67L164 425.91L166.05 427.13L168.17 428.33L170.37 429.5L172.63 430.63L174.95 431.73L177.35 432.79L179.81 433.8L182.34 434.76L184.95 435.67L187.61 436.52L190.35 437.31L193.16 438.03L196.03 438.69L198.98 439.27L201.99 439.77L205.07 440.19L208.22 440.52L211.44 440.76L214.73 440.91L218.08 440.96L221.44 440.91L224.73 440.76L227.94 440.52L231.09 440.19L234.17 439.77L237.18 439.27L240.12 438.69L243 438.03L245.8 437.31L248.54 436.52L251.21 435.67L253.81 434.76L256.34 433.8L258.8 432.79L261.2 431.74L263.52 430.64L265.78 429.51L267.97 428.34L270.1 427.14L272.15 425.92L274.14 424.68L276.06 423.42L277.91 422.15L279.69 420.87L281.41 419.58L283.06 418.3L284.64 417.02L286.15 415.75L287.6 414.49L288.98 413.24L290.29 412.01L291.54 410.81L292.71 409.64L293.82 408.5L294.87 407.4L295.84 406.33L296.75 405.31L297.6 404.34L298.37 403.42L299.08 402.56L262.12 274.11L174.04 274.11L137.08 402.56ZM403.32 369.46L465.06 369.46L465.06 190.69L403.32 190.69L403.32 369.46ZM135.76 172.81L139.88 176.38L141.4 177.73L142.89 179.11L144.36 180.53L145.79 181.98L147.2 183.46L148.58 184.97L149.93 186.51L151.25 188.09L152.54 189.69L153.8 191.32L155.03 192.98L156.23 194.66L157.4 196.38L158.54 198.12L159.65 199.88L160.73 201.67L161.77 203.48L162.78 205.32L163.76 207.18L164.71 209.06L165.62 210.96L166.51 212.89L167.35 214.83L168.17 216.79L168.95 218.77L169.69 220.77L170.4 222.79L171.08 224.82L171.72 226.87L172.32 228.93L172.89 231.01L173.42 233.11L173.92 235.21L174.38 237.33L174.8 239.46L175.18 241.61L175.53 243.76L175.84 245.92L176.11 248.1L176.34 250.28L259.83 250.28L260.07 248.1L260.34 245.92L260.65 243.76L260.99 241.61L261.38 239.46L261.8 237.33L262.26 235.21L262.75 233.11L263.29 231.01L263.85 228.93L264.46 226.87L265.1 224.82L265.77 222.79L266.48 220.77L267.23 218.77L268.01 216.79L268.82 214.83L269.67 212.89L270.55 210.96L271.46 209.06L272.41 207.18L273.39 205.32L274.4 203.48L275.45 201.67L276.53 199.88L277.63 198.12L278.77 196.38L279.94 194.66L281.15 192.98L282.38 191.32L283.64 189.69L284.93 188.09L286.25 186.51L287.6 184.97L288.98 183.46L290.39 181.98L291.83 180.53L293.29 179.11L294.78 177.73L296.3 176.38L300.41 172.81L300.41 143.02L268.5 143.02L268.11 145.04L267.66 147.04L267.16 149.01L266.59 150.95L265.98 152.86L265.3 154.74L264.58 156.59L263.8 158.4L262.97 160.18L262.1 161.92L261.17 163.63L260.2 165.29L259.17 166.91L258.11 168.5L257 170.03L255.84 171.53L254.65 172.98L253.41 174.38L252.13 175.73L250.82 177.04L249.46 178.29L248.07 179.49L246.65 180.64L245.19 181.73L243.69 182.76L242.17 183.74L240.61 184.66L239.03 185.52L237.41 186.32L235.77 187.06L234.1 187.73L232.41 188.34L230.69 188.88L228.95 189.35L227.19 189.75L225.41 190.09L223.6 190.35L221.78 190.54L219.94 190.65L218.08 190.69L216.23 190.65L214.39 190.54L212.57 190.35L210.76 190.09L208.98 189.75L207.22 189.35L205.47 188.88L203.76 188.34L202.06 187.73L200.39 187.06L198.75 186.32L197.14 185.52L195.55 184.66L194 183.74L192.47 182.76L190.98 181.73L189.52 180.64L188.09 179.49L186.7 178.29L185.35 177.04L184.04 175.73L182.76 174.38L181.52 172.98L180.33 171.53L179.17 170.03L178.06 168.5L176.99 166.91L175.97 165.29L175 163.63L174.07 161.92L173.19 160.18L172.36 158.4L171.59 156.59L170.86 154.74L170.19 152.86L169.57 150.95L169.01 149.01L168.51 147.04L168.06 145.04L167.67 143.02L135.76 143.02L135.76 172.81ZM432.05 125.06L430.96 125.97L429.86 126.86L428.75 127.72L427.63 128.56L426.49 129.38L425.35 130.18L424.2 130.95L423.03 131.7L421.86 132.43L420.68 133.13L419.48 133.82L418.28 134.47L417.07 135.11L415.85 135.72L414.63 136.3L413.39 136.87L412.14 137.41L410.89 137.92L409.63 138.41L408.36 138.88L407.09 139.32L405.81 139.74L404.52 140.13L403.22 140.5L401.92 140.84L400.61 141.16L399.3 141.46L397.98 141.73L396.65 141.97L395.32 142.19L393.98 142.38L392.64 142.55L391.3 142.69L389.95 142.81L388.59 142.9L387.23 142.96L385.87 143L384.5 143.02L362.15 143.02L362.15 190.69L382.73 190.69L382.75 189.71L382.8 188.73L382.89 187.77L383 186.83L383.15 185.89L383.33 184.97L383.54 184.06L383.78 183.16L384.05 182.28L384.35 181.42L384.68 180.57L385.03 179.74L385.41 178.93L385.82 178.14L386.25 177.37L386.71 176.62L387.19 175.89L387.69 175.18L388.22 174.5L388.77 173.84L389.34 173.2L389.93 172.6L390.54 172.01L391.17 171.46L391.82 170.93L392.48 170.43L393.16 169.96L393.86 169.52L394.58 169.11L395.31 168.73L396.06 168.38L396.82 168.07L397.59 167.79L398.37 167.55L399.17 167.34L399.98 167.16L400.8 167.03L401.63 166.93L402.47 166.87L403.32 166.85L465.06 166.85L465.91 166.87L466.74 166.93L467.57 167.03L468.39 167.16L469.2 167.34L470 167.55L470.79 167.79L471.56 168.07L472.32 168.38L473.06 168.73L473.79 169.11L474.51 169.52L475.21 169.96L475.89 170.43L476.56 170.93L477.21 171.46L477.84 172.01L478.45 172.6L479.04 173.2L479.61 173.84L480.15 174.5L480.68 175.18L481.18 175.89L481.66 176.62L482.12 177.37L482.55 178.14L482.96 178.93L483.34 179.74L483.69 180.57L484.02 181.42L484.32 182.28L484.59 183.16L484.83 184.06L485.04 184.97L485.22 185.89L485.37 186.83L485.49 187.77L485.57 188.73L485.62 189.71L485.64 190.69L506.22 190.69L506.22 143.02L483.87 143.02L482.51 143L481.14 142.96L479.78 142.9L478.43 142.81L477.08 142.69L475.73 142.55L474.39 142.38L473.05 142.19L471.72 141.97L470.4 141.73L469.08 141.46L467.76 141.16L466.45 140.84L465.15 140.5L463.86 140.13L462.57 139.74L461.29 139.32L460.01 138.88L458.74 138.41L457.48 137.92L456.23 137.41L454.99 136.87L453.75 136.3L452.52 135.72L451.3 135.11L450.09 134.47L448.89 133.82L447.7 133.13L446.51 132.43L445.34 131.7L444.18 130.95L443.02 130.18L441.88 129.38L440.75 128.56L439.63 127.72L438.52 126.86L437.42 125.97L436.33 125.06L435.25 124.13L434.19 123.17L433.12 124.13L432.05 125.06ZM216.36 124.71L215.48 125.45L214.6 126.17L213.7 126.88L212.81 127.57L211.9 128.25L210.98 128.9L210.06 129.55L209.13 130.17L208.2 130.79L207.26 131.38L206.31 131.96L205.35 132.53L204.39 133.08L203.42 133.61L202.45 134.13L201.47 134.64L200.48 135.12L199.49 135.6L198.49 136.06L197.49 136.5L196.48 136.93L195.47 137.35L194.46 137.75L193.43 138.13L192.41 138.5L191.38 138.86L190.34 139.2L189.3 139.53L188.26 139.84L188.62 141.33L189.02 142.79L189.48 144.22L189.99 145.62L190.55 147L191.15 148.34L191.81 149.64L192.5 150.91L193.24 152.14L194.03 153.34L194.85 154.49L195.72 155.61L196.62 156.68L197.56 157.7L198.54 158.68L199.55 159.61L200.6 160.5L201.68 161.33L202.79 162.11L203.93 162.84L205.09 163.51L206.29 164.12L207.51 164.68L208.76 165.18L210.03 165.61L211.32 165.98L212.64 166.29L213.97 166.53L215.33 166.71L216.7 166.82L218.08 166.85L219.47 166.82L220.84 166.71L222.19 166.53L223.53 166.29L224.84 165.98L226.14 165.61L227.41 165.18L228.65 164.68L229.88 164.12L231.07 163.51L232.24 162.84L233.38 162.11L234.49 161.33L235.57 160.5L236.62 159.61L237.63 158.68L238.61 157.7L239.55 156.68L240.45 155.61L241.32 154.49L242.14 153.34L242.92 152.14L243.66 150.91L244.36 149.64L245.01 148.34L245.62 147L246.18 145.62L246.69 144.22L247.14 142.79L247.55 141.33L247.91 139.84L246.86 139.53L245.82 139.2L244.79 138.86L243.76 138.51L242.73 138.14L241.71 137.75L240.7 137.35L239.68 136.94L238.68 136.51L237.68 136.07L236.68 135.61L235.69 135.13L234.7 134.64L233.72 134.14L232.75 133.62L231.78 133.08L230.82 132.53L229.87 131.97L228.92 131.39L227.97 130.79L227.04 130.18L226.11 129.55L225.19 128.91L224.27 128.25L223.37 127.57L222.47 126.88L221.57 126.17L220.69 125.45L219.81 124.71L218.94 123.96L218.08 123.18L217.22 123.96L216.36 124.71ZM30.32 48.04L29.14 48.48L28.02 49.07L26.98 49.81L26.02 50.69L25.16 51.68L24.41 52.79L23.77 54L23.25 55.29L22.88 56.66L22.64 58.1L22.56 59.59L22.64 61.08L22.88 62.52L23.25 63.89L23.77 65.18L24.41 66.39L25.16 67.5L26.02 68.49L26.98 69.37L28.02 70.11L29.14 70.7L30.32 71.14L31.56 71.41L32.85 71.51L34.14 71.41L35.38 71.14L36.57 70.7L37.69 70.11L38.73 69.37L39.68 68.49L40.54 67.5L41.3 66.39L41.94 65.18L42.45 63.89L42.83 62.52L43.06 61.08L43.14 59.59L43.06 58.1L42.83 56.66L42.45 55.29L41.94 54L41.3 52.79L40.54 51.68L39.68 50.69L38.73 49.81L37.69 49.07L36.57 48.48L35.38 48.04L34.14 47.76L32.85 47.67L31.56 47.76L30.32 48.04ZM606.6 48.04L605.41 48.48L604.29 49.07L603.25 49.81L602.3 50.69L601.44 51.68L600.68 52.79L600.04 54L599.53 55.29L599.15 56.66L598.92 58.1L598.84 59.59L598.92 61.08L599.15 62.52L599.53 63.89L600.04 65.18L600.68 66.39L601.44 67.5L602.3 68.49L603.25 69.37L604.29 70.11L605.41 70.7L606.6 71.14L607.84 71.41L609.13 71.51L610.42 71.41L611.66 71.14L612.85 70.7L613.96 70.11L615 69.37L615.96 68.49L616.82 67.5L617.57 66.39L618.21 65.18L618.73 63.89L619.1 62.52L619.34 61.08L619.42 59.59L619.34 58.1L619.1 56.66L618.73 55.29L618.21 54L617.57 52.79L616.82 51.68L615.96 50.69L615 49.81L613.96 49.07L612.85 48.48L611.66 48.04L610.42 47.76L609.13 47.67L607.84 47.76L606.6 48.04ZM184.17 24.09L182.7 24.41L181.27 24.85L179.88 25.4L178.54 26.05L177.25 26.82L176.01 27.68L174.83 28.64L173.72 29.69L172.66 30.82L171.68 32.04L170.78 33.33L169.95 34.7L169.2 36.13L168.55 37.63L167.98 39.19L167.5 40.79L167.13 42.45L166.85 44.15L166.69 45.9L166.63 47.67L207.79 47.67L207.74 45.9L207.57 44.15L207.3 42.45L206.92 40.79L206.45 39.19L205.88 37.63L205.22 36.13L204.47 34.7L203.65 33.33L202.74 32.04L201.76 30.82L200.71 29.69L199.59 28.64L198.41 27.68L197.17 26.82L195.88 26.05L194.54 25.4L193.15 24.85L191.72 24.41L190.25 24.09L188.75 23.9L187.21 23.84L185.68 23.9L184.17 24.09ZM400.28 24.09L398.81 24.41L397.38 24.85L395.99 25.4L394.65 26.05L393.35 26.82L392.12 27.68L390.94 28.64L389.82 29.69L388.77 30.82L387.79 32.04L386.88 33.33L386.05 34.7L385.31 36.13L384.65 37.63L384.08 39.19L383.61 40.79L383.23 42.45L382.96 44.15L382.79 45.9L382.73 47.67L423.9 47.67L423.84 45.9L423.67 44.15L423.4 42.45L423.02 40.79L422.55 39.19L421.98 37.63L421.32 36.13L420.58 34.7L419.75 33.33L418.84 32.04L417.86 30.82L416.81 29.69L415.69 28.64L414.51 27.68L413.28 26.82L411.98 26.05L410.64 25.4L409.25 24.85L407.82 24.41L406.35 24.09L404.85 23.9L403.32 23.84L401.78 23.9L400.28 24.09Z" id="abEMRyClu"></path></defs><g><g><g><use xlink:href="#abEMRyClu" opacity="1" fill="#000000" fill-opacity="1"></use><g><use xlink:href="#abEMRyClu" opacity="1" fill-opacity="0" stroke="#000000" stroke-width="1" stroke-opacity="0"></use></g></g></g></g></svg>