<?xml version="1.0" encoding="UTF-8" standalone="no"?>
<!DOCTYPE svg PUBLIC "-//W3C//DTD SVG 1.1//EN" "http://www.w3.org/Graphics/SVG/1.1/DTD/svg11.dtd">
<svg version="1.1" xmlns="http://www.w3.org/2000/svg" xmlns:xlink="http://www.w3.org/1999/xlink" preserveAspectRatio="xMidYMid meet" viewBox="0 0 640 640" width="39" height="39"><defs><path d="M331.39 8.34L335.32 8.88L339.13 9.61L342.83 10.53L346.41 11.64L349.88 12.92L353.24 14.37L356.48 15.98L359.61 17.75L362.62 19.65L365.53 21.69L368.32 23.86L371 26.15L373.58 28.55L376.04 31.05L378.4 33.65L380.65 36.33L382.79 39.1L384.83 41.94L386.76 44.84L388.58 47.79L390.31 50.8L391.92 53.84L393.44 56.92L394.85 60.02L396.16 63.13L397.37 66.26L398.48 69.38L399.49 72.49L400.4 75.59L401.21 78.67L401.92 81.71L402.54 84.71L403.06 87.66L403.48 90.56L403.81 93.4L404.04 96.16L404.18 98.84L404.23 101.43L404.15 104.08L403.93 106.63L403.58 109.09L403.09 111.44L402.48 113.7L401.76 115.84L400.93 117.87L400 119.79L398.98 121.6L397.87 123.29L396.68 124.85L395.42 126.29L394.09 127.6L392.71 128.78L391.28 129.83L389.81 130.74L388.3 131.52L386.77 132.15L385.22 132.63L383.65 132.97L382.08 133.15L380.51 133.18L378.95 133.06L377.4 132.77L375.88 132.32L374.39 131.71L372.94 130.92L371.53 129.96L370.18 128.83L368.89 127.52L367.66 126.03L366.51 124.36L365.44 122.5L364.46 120.45L363.58 118.21L362.8 115.77L362.14 113.13L361.59 110.29L361.17 107.25L360.88 104L360.71 101.89L360.49 99.84L360.2 97.85L359.87 95.92L359.48 94.05L359.03 92.23L358.54 90.48L358 88.78L357.41 87.14L356.78 85.56L356.1 84.03L355.37 82.56L354.61 81.15L353.81 79.79L352.96 78.49L352.08 77.24L351.16 76.05L350.21 74.91L349.23 73.83L348.21 72.8L347.17 71.82L346.09 70.9L344.99 70.03L343.86 69.21L342.71 68.45L341.54 67.73L340.34 67.07L339.12 66.46L337.89 65.9L336.63 65.39L335.37 64.93L334.08 64.52L332.79 64.16L331.48 63.85L330.17 63.59L328.84 63.37L327.51 63.21L326.17 63.09L324.83 63.02L323.48 63L322.66 63.02L321.79 63.08L320.87 63.18L319.92 63.33L318.93 63.52L317.91 63.76L316.86 64.05L315.78 64.38L314.68 64.77L313.57 65.2L312.43 65.69L311.29 66.23L310.14 66.82L308.99 67.47L307.83 68.17L306.68 68.93L305.53 69.75L304.39 70.63L303.26 71.57L302.16 72.57L301.07 73.63L300 74.76L298.96 75.96L297.96 77.22L296.98 78.54L296.05 79.94L295.15 81.4L294.3 82.94L293.5 84.55L292.75 86.23L292.05 87.98L291.41 89.81L290.84 91.72L290.33 93.7L289.88 95.77L289.52 97.91L289.22 100.13L289.01 102.44L288.88 104.83L288.83 107.3L288.83 107.35L288.82 107.51L288.81 107.77L288.8 108.12L288.79 108.56L288.79 109.08L288.79 109.69L288.81 110.38L288.83 111.14L288.87 111.97L288.93 112.87L289 113.83L289.1 114.85L289.22 115.92L289.36 117.04L289.54 118.21L289.75 119.42L289.99 120.66L290.26 121.94L290.58 123.25L290.93 124.58L291.33 125.93L291.77 127.3L292.26 128.69L292.8 130.08L293.4 131.47L294.05 132.87L294.75 134.26L295.52 135.64L296.35 137.01L297.24 138.37L298.2 139.7L299.23 141.01L300.34 142.29L301.51 143.54L302.76 144.75L304.1 145.92L305.51 147.05L307.01 148.12L308.59 149.14L308.65 149.18L308.83 149.27L309.13 149.43L309.53 149.65L310.03 149.94L310.63 150.29L311.31 150.71L312.08 151.19L312.92 151.74L313.83 152.36L314.8 153.04L315.83 153.8L316.91 154.62L318.03 155.51L319.19 156.47L320.39 157.49L321.61 158.59L322.84 159.76L324.09 161.01L325.35 162.32L326.6 163.7L327.85 165.16L329.09 166.69L330.31 168.3L331.5 169.98L332.66 171.73L333.79 173.56L334.87 175.47L335.9 177.45L336.87 179.5L337.78 181.64L338.62 183.85L339.39 186.14L340.07 188.51L340.67 190.95L341.17 193.48L341.57 196.08L341.86 198.77L342.05 201.54L342.11 204.39L342.11 238.34L611.75 437.81L614.03 439.64L616.18 441.53L618.23 443.47L620.17 445.46L622 447.5L623.73 449.59L625.35 451.71L626.88 453.88L628.3 456.08L629.63 458.32L630.87 460.58L632.02 462.88L633.08 465.2L634.05 467.54L634.94 469.91L635.75 472.29L636.48 474.68L637.14 477.09L637.72 479.5L638.22 481.92L638.66 484.35L639.04 486.77L639.34 489.19L639.59 491.61L639.78 494.02L639.91 496.42L639.98 498.8L640 501.17L639.97 503.52L639.89 505.84L639.77 508.15L639.61 510.42L639.4 512.66L639.15 514.87L638.87 517.05L638.56 519.18L638.21 521.28L637.84 523.33L637.44 525.33L637.01 527.28L636.56 529.16L636.07 531.04L635.52 532.94L634.92 534.84L634.28 536.74L633.58 538.64L632.83 540.54L632.02 542.43L631.17 544.32L630.25 546.19L629.28 548.04L628.25 549.87L627.17 551.69L626.03 553.47L624.82 555.23L623.56 556.96L622.23 558.65L620.85 560.31L619.4 561.92L617.88 563.5L616.31 565.02L614.66 566.5L612.95 567.92L611.17 569.28L609.33 570.59L607.41 571.84L605.43 573.02L603.37 574.13L601.25 575.17L599.05 576.14L596.77 577.03L594.43 577.83L592.01 578.56L589.51 579.2L586.93 579.75L584.28 580.2L581.55 580.56L578.74 580.82L575.85 580.98L572.88 581.03L63.66 581.03L61 580.98L58.39 580.82L55.85 580.55L53.37 580.18L50.95 579.71L48.58 579.15L46.28 578.49L44.03 577.75L41.84 576.92L39.71 576.01L37.64 575.02L35.63 573.95L33.67 572.81L31.77 571.61L29.93 570.33L28.15 569L26.42 567.6L24.75 566.15L23.14 564.64L21.59 563.09L20.09 561.48L18.65 559.84L17.26 558.15L15.94 556.43L14.66 554.67L13.45 552.88L12.28 551.07L11.18 549.23L10.13 547.37L9.13 545.49L8.19 543.6L7.31 541.7L6.48 539.79L5.7 537.87L4.98 535.95L4.32 534.04L3.7 532.13L3.15 530.23L2.64 528.34L2.19 526.46L1.77 524.5L1.4 522.49L1.06 520.42L0.77 518.29L0.53 516.12L0.33 513.91L0.17 511.66L0.07 509.36L0.01 507.04L0 504.69L0.04 502.31L0.14 499.91L0.28 497.49L0.48 495.05L0.74 492.6L1.05 490.15L1.42 487.69L1.85 485.24L2.33 482.78L2.88 480.34L3.49 477.9L4.16 475.48L4.89 473.08L5.69 470.7L6.55 468.34L7.48 466.02L8.48 463.72L9.55 461.47L10.68 459.25L11.89 457.08L13.17 454.95L14.52 452.88L15.95 450.86L17.45 448.9L19.02 447L20.68 445.17L22.41 443.4L24.22 441.71L26.12 440.1L28.09 438.57L300.47 238.34L300.47 217.22L300.41 215.67L300.25 214.17L299.98 212.72L299.62 211.33L299.16 209.97L298.6 208.66L297.97 207.38L297.25 206.14L296.45 204.92L295.58 203.73L294.63 202.56L293.63 201.4L292.56 200.26L291.43 199.12L290.25 197.99L289.02 196.86L287.75 195.72L286.43 194.58L285.08 193.42L283.7 192.25L282.29 191.06L280.86 189.84L279.4 188.59L277.93 187.32L276.45 186L274.96 184.65L273.47 183.25L271.99 181.8L270.5 180.3L269.03 178.74L267.57 177.13L266.13 175.45L264.71 173.7L263.32 171.87L261.95 169.98L260.63 168L259.34 165.93L258.09 163.78L256.9 161.53L255.75 159.19L255.11 157.79L254.49 156.39L253.89 155.01L253.31 153.63L252.76 152.26L252.23 150.89L251.73 149.53L251.24 148.18L250.78 146.84L250.34 145.5L249.91 144.16L249.51 142.83L249.13 141.51L248.76 140.19L248.42 138.87L248.09 137.56L247.78 136.24L247.49 134.94L247.22 133.63L246.96 132.33L246.72 131.03L246.5 129.73L246.29 128.43L246.1 127.13L245.92 125.83L245.76 124.53L245.61 123.23L245.47 121.94L245.35 120.64L245.24 119.33L245.14 118.03L245.05 116.73L244.98 115.42L244.91 114.11L244.86 112.8L244.82 111.48L244.79 110.16L244.77 108.83L244.75 107.51L244.75 106.17L244.78 104.31L244.88 102.26L245.05 100.05L245.3 97.69L245.62 95.17L246.02 92.53L246.49 89.76L247.05 86.89L247.7 83.92L248.43 80.86L249.26 77.73L250.17 74.54L251.18 71.3L252.29 68.02L253.5 64.71L254.8 61.39L256.22 58.06L257.74 54.75L259.37 51.45L261.11 48.19L262.97 44.97L264.94 41.81L267.03 38.71L269.24 35.7L271.58 32.78L274.04 29.96L276.64 27.25L279.36 24.67L282.22 22.23L285.21 19.94L288.34 17.81L291.62 15.86L295.03 14.09L298.6 12.52L302.31 11.16L306.17 10.02L310.18 9.11L314.35 8.45L318.68 8.05L323.17 7.91L327.34 8.02L331.39 8.34ZM52.85 484.91L51.77 485.96L50.79 487.06L49.89 488.21L49.1 489.4L48.39 490.63L47.77 491.9L47.23 493.2L46.78 494.52L46.42 495.87L46.13 497.23L45.93 498.61L45.8 500L45.74 501.39L45.76 502.78L45.85 504.17L46.01 505.55L46.24 506.91L46.53 508.26L46.89 509.59L47.31 510.9L47.78 512.17L48.32 513.41L48.91 514.61L49.56 515.77L50.26 516.88L51.01 517.93L51.8 518.94L52.65 519.88L53.54 520.76L54.47 521.57L55.44 522.3L56.45 522.96L57.5 523.54L58.58 524.03L59.7 524.43L60.85 524.74L62.03 524.94L63.23 525.04L64.46 525.04L573.52 525.04L574.84 524.99L576.12 524.83L577.36 524.58L578.57 524.24L579.73 523.82L580.86 523.31L581.94 522.72L582.98 522.05L583.97 521.31L584.92 520.5L585.81 519.63L586.66 518.7L587.45 517.71L588.2 516.66L588.88 515.57L589.51 514.43L590.09 513.25L590.6 512.03L591.05 510.77L591.44 509.49L591.77 508.17L592.03 506.84L592.22 505.48L592.35 504.11L592.4 502.72L592.39 501.33L592.3 499.93L592.13 498.53L591.89 497.14L591.57 495.75L591.17 494.37L590.69 493.01L590.13 491.66L589.49 490.34L588.76 489.04L587.94 487.77L587.03 486.53L586.03 485.33L584.95 484.18L583.76 483.06L319.61 289.54L54.03 483.92L52.85 484.91Z" id="c8cjjAieX"></path></defs><g><g><g><use xlink:href="#c8cjjAieX" opacity="1" fill="#000000" fill-opacity="1"></use><g><use xlink:href="#c8cjjAieX" opacity="1" fill-opacity="0" stroke="#000000" stroke-width="1" stroke-opacity="0"></use></g></g></g></g></svg>